<svg version="1.1" xmlns="http://www.w3.org/2000/svg" xmlns:xlink="http://www.w3.org/1999/xlink" width="800" height="800"><defs/><g transform="scale(2,2)"><g id="background-75fa7ed4"><rect fill="white" stroke="none" x="0" y="0" width="400" height="400" class="dcg-svg-background"/></g><g id="background-images-75fa7ed4"/><g id="graphpaper-75fa7ed4"><g id="grid-75fa7ed4"><g><path fill="none" stroke="rgb(0,0,0)" class="dcg-svg-minor-gridline" paint-order="fill stroke markers" d=" M 14.5 0 L 14.5 400" stroke-opacity="0.2" stroke-miterlimit="10" stroke-dasharray=""/><path fill="none" stroke="rgb(0,0,0)" class="dcg-svg-minor-gridline" paint-order="fill stroke markers" d=" M 45.5 0 L 45.5 400" stroke-opacity="0.2" stroke-miterlimit="10" stroke-dasharray=""/><path fill="none" stroke="rgb(0,0,0)" class="dcg-svg-minor-gridline" paint-order="fill stroke markers" d=" M 76.5 0 L 76.5 400" stroke-opacity="0.2" stroke-miterlimit="10" stroke-dasharray=""/><path fill="none" stroke="rgb(0,0,0)" class="dcg-svg-minor-gridline" paint-order="fill stroke markers" d=" M 106.5 0 L 106.5 400" stroke-opacity="0.2" stroke-miterlimit="10" stroke-dasharray=""/><path fill="none" stroke="rgb(0,0,0)" class="dcg-svg-minor-gridline" paint-order="fill stroke markers" d=" M 137.5 0 L 137.5 400" stroke-opacity="0.2" stroke-miterlimit="10" stroke-dasharray=""/><path fill="none" stroke="rgb(0,0,0)" class="dcg-svg-minor-gridline" paint-order="fill stroke markers" d=" M 167.5 0 L 167.5 400" stroke-opacity="0.2" stroke-miterlimit="10" stroke-dasharray=""/><path fill="none" stroke="rgb(0,0,0)" class="dcg-svg-minor-gridline" paint-order="fill stroke markers" d=" M 228.5 0 L 228.5 400" stroke-opacity="0.2" stroke-miterlimit="10" stroke-dasharray=""/><path fill="none" stroke="rgb(0,0,0)" class="dcg-svg-minor-gridline" paint-order="fill stroke markers" d=" M 259.5 0 L 259.5 400" stroke-opacity="0.2" stroke-miterlimit="10" stroke-dasharray=""/><path fill="none" stroke="rgb(0,0,0)" class="dcg-svg-minor-gridline" paint-order="fill stroke markers" d=" M 290.5 0 L 290.5 400" stroke-opacity="0.2" stroke-miterlimit="10" stroke-dasharray=""/><path fill="none" stroke="rgb(0,0,0)" class="dcg-svg-minor-gridline" paint-order="fill stroke markers" d=" M 320.5 0 L 320.5 400" stroke-opacity="0.2" stroke-miterlimit="10" stroke-dasharray=""/><path fill="none" stroke="rgb(0,0,0)" class="dcg-svg-minor-gridline" paint-order="fill stroke markers" d=" M 351.5 0 L 351.5 400" stroke-opacity="0.2" stroke-miterlimit="10" stroke-dasharray=""/><path fill="none" stroke="rgb(0,0,0)" class="dcg-svg-minor-gridline" paint-order="fill stroke markers" d=" M 381.5 0 L 381.5 400" stroke-opacity="0.2" stroke-miterlimit="10" stroke-dasharray=""/><path fill="none" stroke="rgb(0,0,0)" class="dcg-svg-minor-gridline" paint-order="fill stroke markers" d=" M 0 392.5 L 400 392.5" stroke-opacity="0.2" stroke-miterlimit="10" stroke-dasharray=""/><path fill="none" stroke="rgb(0,0,0)" class="dcg-svg-minor-gridline" paint-order="fill stroke markers" d=" M 0 361.5 L 400 361.5" stroke-opacity="0.2" stroke-miterlimit="10" stroke-dasharray=""/><path fill="none" stroke="rgb(0,0,0)" class="dcg-svg-minor-gridline" paint-order="fill stroke markers" d=" M 0 331.5 L 400 331.5" stroke-opacity="0.2" stroke-miterlimit="10" stroke-dasharray=""/><path fill="none" stroke="rgb(0,0,0)" class="dcg-svg-minor-gridline" paint-order="fill stroke markers" d=" M 0 300.5 L 400 300.5" stroke-opacity="0.2" stroke-miterlimit="10" stroke-dasharray=""/><path fill="none" stroke="rgb(0,0,0)" class="dcg-svg-minor-gridline" paint-order="fill stroke markers" d=" M 0 269.5 L 400 269.5" stroke-opacity="0.2" stroke-miterlimit="10" stroke-dasharray=""/><path fill="none" stroke="rgb(0,0,0)" class="dcg-svg-minor-gridline" paint-order="fill stroke markers" d=" M 0 208.5 L 400 208.5" stroke-opacity="0.2" stroke-miterlimit="10" stroke-dasharray=""/><path fill="none" stroke="rgb(0,0,0)" class="dcg-svg-minor-gridline" paint-order="fill stroke markers" d=" M 0 178.5 L 400 178.5" stroke-opacity="0.2" stroke-miterlimit="10" stroke-dasharray=""/><path fill="none" stroke="rgb(0,0,0)" class="dcg-svg-minor-gridline" paint-order="fill stroke markers" d=" M 0 147.5 L 400 147.5" stroke-opacity="0.2" stroke-miterlimit="10" stroke-dasharray=""/><path fill="none" stroke="rgb(0,0,0)" class="dcg-svg-minor-gridline" paint-order="fill stroke markers" d=" M 0 117.5 L 400 117.5" stroke-opacity="0.2" stroke-miterlimit="10" stroke-dasharray=""/><path fill="none" stroke="rgb(0,0,0)" class="dcg-svg-minor-gridline" paint-order="fill stroke markers" d=" M 0 86.5 L 400 86.5" stroke-opacity="0.2" stroke-miterlimit="10" stroke-dasharray=""/><path fill="none" stroke="rgb(0,0,0)" class="dcg-svg-minor-gridline" paint-order="fill stroke markers" d=" M 0 55.5 L 400 55.5" stroke-opacity="0.2" stroke-miterlimit="10" stroke-dasharray=""/><path fill="none" stroke="rgb(0,0,0)" class="dcg-svg-minor-gridline" paint-order="fill stroke markers" d=" M 0 25.5 L 400 25.5" stroke-opacity="0.2" stroke-miterlimit="10" stroke-dasharray=""/><path fill="none" stroke="rgb(0,0,0)" class="dcg-svg-major-gridline" paint-order="fill stroke markers" d=" M 45.5 0 L 45.5 400" stroke-opacity="0.2500000000000001" stroke-miterlimit="10" stroke-dasharray=""/><path fill="none" stroke="rgb(0,0,0)" class="dcg-svg-major-gridline" paint-order="fill stroke markers" d=" M 351.5 0 L 351.5 400" stroke-opacity="0.2500000000000001" stroke-miterlimit="10" stroke-dasharray=""/><path fill="none" stroke="rgb(0,0,0)" class="dcg-svg-major-gridline" paint-order="fill stroke markers" d=" M 0 392.5 L 400 392.5" stroke-opacity="0.2500000000000001" stroke-miterlimit="10" stroke-dasharray=""/><path fill="none" stroke="rgb(0,0,0)" class="dcg-svg-major-gridline" paint-order="fill stroke markers" d=" M 0 86.5 L 400 86.5" stroke-opacity="0.2500000000000001" stroke-miterlimit="10" stroke-dasharray=""/></g></g><g id="axis-75fa7ed4"><g id="yaxis-75fa7ed4"><title>Y axis</title><g><path fill="none" stroke="rgb(0,0,0)" class="dcg-svg-axis-line" paint-order="fill stroke markers" d=" M 198 0 L 198 400" stroke-opacity="0.9" stroke-miterlimit="10" stroke-width="1.5" stroke-dasharray=""/></g></g><g id="xaxis-75fa7ed4"><title>X axis</title><g><path fill="none" stroke="rgb(0,0,0)" class="dcg-svg-axis-line" paint-order="fill stroke markers" d=" M 0 239 L 400 239" stroke-opacity="0.9" stroke-miterlimit="10" stroke-width="1.5" stroke-dasharray=""/></g></g><g><g class="dcg-svg-axis-value"><text fill="none" stroke="#ffffff" font-family="Arial" font-size="14px" font-style="normal" font-weight="normal" text-decoration="normal" x="189.5285712827171" y="255.22332149307545" text-anchor="middle" stroke-miterlimit="2" stroke-width="3" stroke-dasharray="">0</text><text fill="#000000" stroke="none" font-family="Arial" font-size="14px" font-style="normal" font-weight="normal" text-decoration="normal" x="189.5285712827171" y="255.22332149307545" text-anchor="middle">0</text></g><g class="dcg-svg-axis-value"><text fill="none" stroke="#ffffff" font-family="Arial" font-size="14px" font-style="normal" font-weight="normal" text-decoration="normal" x="43.22383691856541" y="255.22332149307545" text-anchor="middle" stroke-miterlimit="2" stroke-width="3" stroke-dasharray="">-5</text><text fill="#000000" stroke="none" font-family="Arial" font-size="14px" font-style="normal" font-weight="normal" text-decoration="normal" x="43.22383691856541" y="255.22332149307545" text-anchor="middle">-5</text></g><g class="dcg-svg-axis-value"><text fill="none" stroke="#ffffff" font-family="Arial" font-size="14px" font-style="normal" font-weight="normal" text-decoration="normal" x="351.2833056945525" y="255.22332149307545" text-anchor="middle" stroke-miterlimit="2" stroke-width="3" stroke-dasharray="">5</text><text fill="#000000" stroke="none" font-family="Arial" font-size="14px" font-style="normal" font-weight="normal" text-decoration="normal" x="351.2833056945525" y="255.22332149307545" text-anchor="middle">5</text></g><g class="dcg-svg-axis-value dcg-svg-offcenter-axis-value"><text fill="none" stroke="#ffffff" font-family="Arial" font-size="14px" font-style="normal" font-weight="normal" text-decoration="normal" x="187.19523802885664" y="393.808" text-anchor="middle" stroke-miterlimit="2" stroke-width="3" stroke-dasharray="">-5</text><text fill="#000000" stroke="none" font-family="Arial" font-size="14px" font-style="normal" font-weight="normal" text-decoration="normal" x="187.19523802885664" y="393.808" text-anchor="middle">-5</text></g><g class="dcg-svg-axis-value"><text fill="none" stroke="#ffffff" font-family="Arial" font-size="14px" font-style="normal" font-weight="normal" text-decoration="normal" x="189.5285712827171" y="90.36025373201214" text-anchor="middle" stroke-miterlimit="2" stroke-width="3" stroke-dasharray="">5</text><text fill="#000000" stroke="none" font-family="Arial" font-size="14px" font-style="normal" font-weight="normal" text-decoration="normal" x="189.5285712827171" y="90.36025373201214" text-anchor="middle">5</text></g></g></g></g><g id="expressions-75fa7ed4"><g id="sketch-75fa7ed4"><title>Expression 1</title><path fill="#c74440" stroke="none" paint-order="stroke fill markers" d="" fill-opacity="0.4"/><g><path fill="none" stroke="#c74440" class="dcg-svg-curve" paint-order="fill stroke markers" d=" M 0 236.49478729108353 L 0 236.49478729108353 L 1.85546875 236.5221846411858 L 7.128906250000028 236.81556964094347 L 8.69140625 236.5048694930059 L 10.64453125 235.81727433253084 L 13.964843750000028 234.6033211055903 L 15.4296875 234.36599897476853 L 16.89453125 234.3938087264716 L 18.75 234.7193424055391 L 21.58203125 235.22187379677644 L 22.94921875000003 235.17280725888693 L 24.21875000000003 234.85983981076856 L 25.5859375 234.23942724898524 L 27.53906250000003 233.01082756334452 L 30.07812500000003 231.46023008168248 L 31.4453125 230.95887901872868 L 32.6171875 230.80954753638022 L 33.7890625 230.92368939892225 L 35.15625 231.32799109111397 L 39.23837258300901 232.7332885596121" stroke-linecap="round" stroke-linejoin="round" stroke-miterlimit="10" stroke-width="2.5" stroke-dasharray=""/></g><g><path fill="none" stroke="#c74440" class="dcg-svg-curve" paint-order="fill stroke markers" d=" M 39.23837258300904 202.16067500739945 L 39.23837258300904 202.16067500739945 L 40.33203125 202.15358099509916 L 41.40625000000003 201.86891200158914 L 42.48046875 201.29923889254133 L 43.75 200.29793017630513 L 45.60546875 198.42061999542744 L 46.473639659960895 197.49578499270964" stroke-linecap="round" stroke-linejoin="round" stroke-miterlimit="10" stroke-width="2.5" stroke-dasharray=""/></g><g><path fill="none" stroke="#c74440" class="dcg-svg-curve" paint-order="fill stroke markers" d=" M 46.473639659960924 228.0683985449223 L 46.473639659960924 228.0683985449223 L 48.33984375 226.31862210522166 L 49.51171875000003 225.56456273824503 L 50.48828125 225.21655802048014 L 51.46484375 225.14682470551634 L 52.44140625000003 225.34945029926723 L 53.24796120625933 225.6999529773775" stroke-linecap="round" stroke-linejoin="round" stroke-miterlimit="10" stroke-width="2.5" stroke-dasharray=""/></g><g><path fill="none" stroke="#c74440" class="dcg-svg-curve" paint-order="fill stroke markers" d=" M 53.24796120625936 195.12733942516485 L 53.24796120625936 195.12733942516485 L 54.58984375 195.98701910461884 L 58.30078125000003 198.5546731556238 L 59.27734375 198.84941386167924 L 60.15625000000003 198.8657902063797 L 61.03515625 198.61874038241345 L 61.91406250000003 198.0994584236352 L 62.98828125000003 197.1101396335136 L 64.25781250000003 195.50999593554292 L 66.21093750000003 192.4806947051754 L 68.75 188.60992020464857 L 70.1171875 187.08433602734925 L 71.09375000000003 186.38269090924052 L 71.97265625 186.06903635106198 L 72.75390624999999 186.0538432285925 L 73.53515625 186.2835837753388 L 74.4140625 186.81657356230747 L 75.48828125000001 187.8104996941036 L 76.953125 189.60601594501344 L 80.76171875000001 194.47314710480134 L 81.8359375 195.31604838832905 L 82.71484375000001 195.69028223222088 L 83.49609375000001 195.75276125529527 L 84.27734375000001 195.54532062194045 L 85.05859375000001 195.06333550132302 L 85.9375 194.2002295588409 L 87.01171875000001 192.71778751257 L 88.28125000000003 190.45421463197846 L 89.47454590495227 187.9618656196267" stroke-linecap="round" stroke-linejoin="round" stroke-miterlimit="10" stroke-width="2.5" stroke-dasharray=""/></g><g><path fill="none" stroke="#c74440" class="dcg-svg-curve" paint-order="fill stroke markers" d=" M 89.47454590495228 218.53447917183934 L 89.47454590495228 218.53447917183934 L 92.001010003035 212.87687635978804" stroke-linecap="round" stroke-linejoin="round" stroke-miterlimit="10" stroke-width="2.5" stroke-dasharray=""/></g><g><path fill="none" stroke="#c74440" class="dcg-svg-curve" paint-order="fill stroke markers" d=" M 92.00101000303502 182.30426280757533 L 92.00101000303502 182.30426280757533 L 93.65234375 178.98730230998757 L 94.92187500000001 176.9728671594164 L 95.99609375 175.7612183496563 L 96.87500000000001 175.155930458071 L 97.65625 174.92893047864374 L 98.33984375 174.975678915578 L 99.12109375000003 175.30765443915982 L 100.00000000000001 176.02393481376913 L 100.97656250000001 177.21455617620254 L 102.1484375 179.11998441319855 L 102.90482288288167 180.5755644785075" stroke-linecap="round" stroke-linejoin="round" stroke-miterlimit="10" stroke-width="2.5" stroke-dasharray=""/></g><g><path fill="none" stroke="#c74440" class="dcg-svg-curve" paint-order="fill stroke markers" d=" M 102.90482288288169 211.14817803072017 L 102.90482288288169 211.14817803072017 L 104.58984375 214.81732957759067 L 108.30078125000001 223.04630475340443 L 109.66796875 225.42435284498058 L 110.83984375000001 226.9531157310251 L 110.97657427402551 227.09654409186837" stroke-linecap="round" stroke-linejoin="round" stroke-miterlimit="10" stroke-width="2.5" stroke-dasharray=""/></g><g><path fill="none" stroke="#c74440" class="dcg-svg-curve" paint-order="fill stroke markers" d=" M 110.97657427402552 196.52393053965574 L 110.97657427402552 196.52393053965574 L 111.91406250000001 197.29557441599667 L 112.79296875000003 197.6690553121258 L 113.57421875000003 197.70765846863816 L 114.35546875000001 197.46896921916098 L 115.13671875000001 196.957955455197 L 116.11328125000001 195.95282816456174 L 116.88244554704048 194.89396463454722" stroke-linecap="round" stroke-linejoin="round" stroke-miterlimit="10" stroke-width="2.5" stroke-dasharray=""/></g><g><path fill="none" stroke="#c74440" class="dcg-svg-curve" paint-order="fill stroke markers" d=" M 116.88244554704049 225.46657818675985 L 116.88244554704049 225.46657818675985 L 118.06640625 223.4279575297194 L 119.53125 220.3448743765258 L 121.58203125 215.36020330439806 L 125.390625 205.99076033665148 L 126.953125 202.81017020848014 L 128.3203125 200.59608739543302 L 129.4921875 199.20331463858736 L 130.46875 198.4343236090609 L 131.34765625 198.06199006106215 L 132.12890625 197.9909433901772 L 132.91015625 198.16562049996395 L 133.7890625 198.65298959564038 L 134.765625 199.54652144608846 L 135.83984375 200.9378623832697 L 137.10937500000003 203.0932673265166 L 138.4765625 205.96543455895213 L 140.0390625 209.8334721917812 L 141.9921875 215.32805739412137 L 145.01953125 224.63042802960354 L 149.12109375 237.12333005677903 L 149.9314965715394 239.41532149307545 L 152.05078125000003 233.85884243238186 L 153.90625 229.59779480945528 L 155.6640625 226.13378075124396 L 157.421875 223.24268249149185 L 159.08203125 221.02887370137992 L 160.7421875 219.29039466649624 L 162.3046875 218.05332633284567 L 163.8671875 217.16212297591545 L 165.4296875 216.57143643014908 L 167.08984375 216.2193828231079 L 168.9453125 216.09137699784299 L 171.2890625 216.21087566218876 L 175.09765625 216.72075112422905 L 179.19921875 217.1878423758811 L 181.8359375 217.2227590766065 L 184.1796875 216.99379228061076 L 186.42578125 216.50533555045882 L 188.57421875 215.7699858507894 L 190.72265625000003 214.7602810177623 L 192.96875 213.40512185920838 L 195.3125 211.66323757075435 L 197.75390625 209.49593816867824 L 200.390625 206.75889834988317 L 203.22265625 203.37502971525316 L 206.25 199.27330499243888 L 209.5703125 194.24295298705823 L 213.18359375 188.22241967963745 L 217.7734375 179.99322734374277 L 225.09765625 166.81554881813034 L 227.9296875 162.32294527204812 L 230.17578125 159.26995313828468 L 232.12890625 157.10846722995194 L 233.69140625 155.7803265670596 L 235.05859375 154.9529223559573 L 236.328125 154.49258803375722 L 237.50434978884292 154.35043669147132 L 238.57421875 154.47157283482613 L 239.6484375 154.84250991052744 L 240.8203125 155.5394234700305 L 242.08984375 156.64288544853 L 243.45703125 158.23456062644493 L 245.01953125 160.55015525165453 L 246.6796875 163.551054225824 L 248.53515625 167.47902269438958 L 250.78125 172.84945551858956 L 257.71484375 189.91555940705777 L 259.375 193.11906872461245 L 260.7421875 195.23463069996367 L 262.01171875 196.69890609799472 L 263.0859375 197.52138235600364 L 263.96484375 197.89284747140726 L 264.84375 197.98445633049508 L 265.72265625 197.7932339167574 L 266.6015625 197.3212861467652 L 267.578125 196.4769101940162 L 268.75 195.0447814718117 L 270.1171875 192.85847448238138 L 271.6796875 189.8113279229885 L 273.92578125 184.80937873504377 L 277.05078125 177.92001486062028 L 278.515625 175.2650439378291 L 279.78515625 173.48988310865028 L 280.859375 172.4602149062188 L 281.73828125 171.9817846195519 L 282.4862196658336 171.8510263049037 L 283.203125 171.97313930798924 L 283.984375 172.38638653151838 L 284.86328125 173.19920284981464 L 285.83984375 174.52159506169167 L 287.01171875 176.65079261157985 L 288.28125 179.539138024934 L 289.84375 183.72832745479434 L 295.703125 200.125303095829 L 296.97265625 202.63582865595643 L 298.046875 204.22423053496942 L 299.0234375 205.20273492745537 L 299.90234375 205.6939390632151 L 300.6596154250586 205.82542681384191 L 301.46484375 205.68289752425707 L 302.34375 205.22254952086547 L 303.3203125 204.38858835472567 L 304.6875 202.78997886543476 L 309.47265625 196.7597597271123 L 310.44921875 196.1222617659484 L 311.328125 195.86660286656303 L 312.109375 195.9182433620263 L 312.890625 196.24418066927825 L 313.76953125 196.93957272911013 L 314.74609375 198.10301257913858 L 315.91796875 199.9826467158772 L 317.3828125 202.90455879556185 L 322.4609375 213.63859764099158 L 323.6328125 215.3045916157707 L 324.70703125 216.36037083658474 L 325.5859375 216.87204803714215 L 326.46484375 217.074764275792 L 327.34375 216.99420607075876 L 328.3203125 216.6233580386155 L 329.58984375 215.8221436158724 L 333.203125 213.31600424740734 L 334.27734375 212.99703761830585 L 335.15625 212.99832644889872 L 336.03515625 213.26058311227422 L 337.01171875 213.8627829947086 L 338.0859375 214.87838274084993 L 339.453125 216.60622630329954 L 342.08984375 220.5782131779746 L 343.9453125 223.10515409822474 L 345.3125 224.47398465908523 L 346.38671875 225.1683673507118 L 347.36328125 225.49743818913387 L 348.33984375 225.56021988210105 L 349.51171875 225.3496096297913 L 351.171875 224.73629894079784 L 353.3203125 223.97596229765028 L 354.5160122754488 223.82987824191116 L 355.56640625 223.95638173985103 L 356.640625 224.3560129983414 L 357.8125 225.086078411134 L 359.375 226.4219652062523 L 363.28125 229.94798453886636 L 364.55078125 230.66482194394806 L 365.72265625 231.03296751667085 L 366.89453125 231.13442503478728 L 368.359375 230.97889548488092 L 372.265625 230.39901847255538 L 373.53515625 230.55075488238316 L 374.90234375 230.98986575703282 L 376.5625 231.83319572313428 L 380.56640625 234.0109023944987 L 382.03125 234.43134262054122 L 383.49609375 234.5721638683341 L 385.3515625 234.46564680954103 L 388.4765625 234.26802467263573 L 390.13671875 234.46078449278988 L 391.9921875 234.96691581875032 L 396.77734375 236.4464049178406 L 398.53515625 236.61860125536217 L 400 236.60372487325736" stroke-linecap="round" stroke-linejoin="round" stroke-miterlimit="10" stroke-width="2.5" stroke-dasharray=""/></g></g><g id="sketch-75fa7ed4"><title>Expression 2</title><path fill="#fa7e19" stroke="none" paint-order="stroke fill markers" d="" fill-opacity="0.4"/><g><path fill="none" stroke="#fa7e19" class="dcg-svg-curve" paint-order="fill stroke markers" d=" M 39.5 230.5 L 39.5 230.5 L 146.5 230.5" stroke-linecap="round" stroke-linejoin="round" stroke-miterlimit="10" stroke-dasharray=""/></g><g><path fill="none" stroke="#fa7e19" class="dcg-svg-curve" paint-order="fill stroke markers" d=" M 153.5 230.5 L 153.5 230.5 L 363.5 230.5" stroke-linecap="round" stroke-linejoin="round" stroke-miterlimit="10" stroke-dasharray=""/></g><path fill="#fa7e19" stroke="none" paint-order="stroke fill markers" d="" fill-opacity="0.4"/><g><path fill="none" stroke="#fa7e19" class="dcg-svg-curve" paint-order="fill stroke markers" d=" M 39.5 221.5 L 39.5 221.5 L 46.5 221.5" stroke-linecap="round" stroke-linejoin="round" stroke-miterlimit="10" stroke-dasharray=""/></g><g><path fill="none" stroke="#fa7e19" class="dcg-svg-curve" paint-order="fill stroke markers" d=" M 53.5 221.5 L 53.5 221.5 L 107.5 221.5" stroke-linecap="round" stroke-linejoin="round" stroke-miterlimit="10" stroke-dasharray=""/></g><g><path fill="none" stroke="#fa7e19" class="dcg-svg-curve" paint-order="fill stroke markers" d=" M 110.5 221.5 L 110.5 221.5 L 116.5 221.5" stroke-linecap="round" stroke-linejoin="round" stroke-miterlimit="10" stroke-dasharray=""/></g><g><path fill="none" stroke="#fa7e19" class="dcg-svg-curve" paint-order="fill stroke markers" d=" M 119.5 221.5 L 119.5 221.5 L 143.5 221.5" stroke-linecap="round" stroke-linejoin="round" stroke-miterlimit="10" stroke-dasharray=""/></g><g><path fill="none" stroke="#fa7e19" class="dcg-svg-curve" paint-order="fill stroke markers" d=" M 159.5 221.5 L 159.5 221.5 L 342.5 221.5" stroke-linecap="round" stroke-linejoin="round" stroke-miterlimit="10" stroke-dasharray=""/></g><path fill="#fa7e19" stroke="none" paint-order="stroke fill markers" d="" fill-opacity="0.4"/><g><path fill="none" stroke="#fa7e19" class="dcg-svg-curve" paint-order="fill stroke markers" d=" M 39.5 211.5 L 39.5 211.5 L 46.5 211.5" stroke-linecap="round" stroke-linejoin="round" stroke-miterlimit="10" stroke-dasharray=""/></g><g><path fill="none" stroke="#fa7e19" class="dcg-svg-curve" paint-order="fill stroke markers" d=" M 53.5 211.5 L 53.5 211.5 L 89.5 211.5" stroke-linecap="round" stroke-linejoin="round" stroke-miterlimit="10" stroke-dasharray=""/></g><g><path fill="none" stroke="#fa7e19" class="dcg-svg-curve" paint-order="fill stroke markers" d=" M 92.5 211.5 L 92.5 211.5 L 103.5 211.5" stroke-linecap="round" stroke-linejoin="round" stroke-miterlimit="10" stroke-dasharray=""/></g><g><path fill="none" stroke="#fa7e19" class="dcg-svg-curve" paint-order="fill stroke markers" d=" M 110.5 211.5 L 110.5 211.5 L 116.5 211.5" stroke-linecap="round" stroke-linejoin="round" stroke-miterlimit="10" stroke-dasharray=""/></g><g><path fill="none" stroke="#fa7e19" class="dcg-svg-curve" paint-order="fill stroke markers" d=" M 122.5 211.5 L 122.5 211.5 L 140.5 211.5" stroke-linecap="round" stroke-linejoin="round" stroke-miterlimit="10" stroke-dasharray=""/></g><g><path fill="none" stroke="#fa7e19" class="dcg-svg-curve" paint-order="fill stroke markers" d=" M 195.5 211.5 L 195.5 211.5 L 321.5 211.5" stroke-linecap="round" stroke-linejoin="round" stroke-miterlimit="10" stroke-dasharray=""/></g><path fill="#fa7e19" stroke="none" paint-order="stroke fill markers" d="" fill-opacity="0.4"/><g><path fill="none" stroke="#fa7e19" class="dcg-svg-curve" paint-order="fill stroke markers" d=" M 39.5 202.5 L 39.5 202.5 L 46.5 202.5" stroke-linecap="round" stroke-linejoin="round" stroke-miterlimit="10" stroke-dasharray=""/></g><g><path fill="none" stroke="#fa7e19" class="dcg-svg-curve" paint-order="fill stroke markers" d=" M 53.5 202.5 L 53.5 202.5 L 89.5 202.5" stroke-linecap="round" stroke-linejoin="round" stroke-miterlimit="10" stroke-dasharray=""/></g><g><path fill="none" stroke="#fa7e19" class="dcg-svg-curve" paint-order="fill stroke markers" d=" M 92.5 202.5 L 92.5 202.5 L 102.5 202.5" stroke-linecap="round" stroke-linejoin="round" stroke-miterlimit="10" stroke-dasharray=""/></g><g><path fill="none" stroke="#fa7e19" class="dcg-svg-curve" paint-order="fill stroke markers" d=" M 110.5 202.5 L 110.5 202.5 L 116.5 202.5" stroke-linecap="round" stroke-linejoin="round" stroke-miterlimit="10" stroke-dasharray=""/></g><g><path fill="none" stroke="#fa7e19" class="dcg-svg-curve" paint-order="fill stroke markers" d=" M 126.5 202.5 L 126.5 202.5 L 136.5 202.5" stroke-linecap="round" stroke-linejoin="round" stroke-miterlimit="10" stroke-dasharray=""/></g><g><path fill="none" stroke="#fa7e19" class="dcg-svg-curve" paint-order="fill stroke markers" d=" M 203.5 202.5 L 203.5 202.5 L 297.5 202.5" stroke-linecap="round" stroke-linejoin="round" stroke-miterlimit="10" stroke-dasharray=""/></g><g><path fill="none" stroke="#fa7e19" class="dcg-svg-curve" paint-order="fill stroke markers" d=" M 304.5 202.5 L 304.5 202.5 L 317.5 202.5" stroke-linecap="round" stroke-linejoin="round" stroke-miterlimit="10" stroke-dasharray=""/></g><path fill="#fa7e19" stroke="none" paint-order="stroke fill markers" d="" fill-opacity="0.4"/><g><path fill="none" stroke="#fa7e19" class="dcg-svg-curve" paint-order="fill stroke markers" d=" M 65.5 193.5 L 65.5 193.5 L 79.5 193.5" stroke-linecap="round" stroke-linejoin="round" stroke-miterlimit="10" stroke-dasharray=""/></g><g><path fill="none" stroke="#fa7e19" class="dcg-svg-curve" paint-order="fill stroke markers" d=" M 86.5 193.5 L 86.5 193.5 L 89.5 193.5" stroke-linecap="round" stroke-linejoin="round" stroke-miterlimit="10" stroke-dasharray=""/></g><g><path fill="none" stroke="#fa7e19" class="dcg-svg-curve" paint-order="fill stroke markers" d=" M 92.5 193.5 L 92.5 193.5 L 102.5 193.5" stroke-linecap="round" stroke-linejoin="round" stroke-miterlimit="10" stroke-dasharray=""/></g><g><path fill="none" stroke="#fa7e19" class="dcg-svg-curve" paint-order="fill stroke markers" d=" M 209.5 193.5 L 209.5 193.5 L 259.5 193.5" stroke-linecap="round" stroke-linejoin="round" stroke-miterlimit="10" stroke-dasharray=""/></g><g><path fill="none" stroke="#fa7e19" class="dcg-svg-curve" paint-order="fill stroke markers" d=" M 269.5 193.5 L 269.5 193.5 L 293.5 193.5" stroke-linecap="round" stroke-linejoin="round" stroke-miterlimit="10" stroke-dasharray=""/></g><path fill="#fa7e19" stroke="none" paint-order="stroke fill markers" d="" fill-opacity="0.4"/><g><path fill="none" stroke="#fa7e19" class="dcg-svg-curve" paint-order="fill stroke markers" d=" M 92.5 184.5 L 92.5 184.5 L 102.5 184.5" stroke-linecap="round" stroke-linejoin="round" stroke-miterlimit="10" stroke-dasharray=""/></g><g><path fill="none" stroke="#fa7e19" class="dcg-svg-curve" paint-order="fill stroke markers" d=" M 215.5 184.5 L 215.5 184.5 L 255.5 184.5" stroke-linecap="round" stroke-linejoin="round" stroke-miterlimit="10" stroke-dasharray=""/></g><g><path fill="none" stroke="#fa7e19" class="dcg-svg-curve" paint-order="fill stroke markers" d=" M 274.5 184.5 L 274.5 184.5 L 290.5 184.5" stroke-linecap="round" stroke-linejoin="round" stroke-miterlimit="10" stroke-dasharray=""/></g><path fill="#fa7e19" stroke="none" paint-order="stroke fill markers" d="" fill-opacity="0.4"/><g><path fill="none" stroke="#fa7e19" class="dcg-svg-curve" paint-order="fill stroke markers" d=" M 96.5 175.5 L 96.5 175.5 L 98.5 175.5" stroke-linecap="round" stroke-linejoin="round" stroke-miterlimit="10" stroke-dasharray=""/></g><g><path fill="none" stroke="#fa7e19" class="dcg-svg-curve" paint-order="fill stroke markers" d=" M 220.5 175.5 L 220.5 175.5 L 251.5 175.5" stroke-linecap="round" stroke-linejoin="round" stroke-miterlimit="10" stroke-dasharray=""/></g><g><path fill="none" stroke="#fa7e19" class="dcg-svg-curve" paint-order="fill stroke markers" d=" M 278.5 175.5 L 278.5 175.5 L 286.5 175.5" stroke-linecap="round" stroke-linejoin="round" stroke-miterlimit="10" stroke-dasharray=""/></g><path fill="#fa7e19" stroke="none" paint-order="stroke fill markers" d="" fill-opacity="0.4"/><g><path fill="none" stroke="#fa7e19" class="dcg-svg-curve" paint-order="fill stroke markers" d=" M 225.5 166.5 L 225.5 166.5 L 247.5 166.5" stroke-linecap="round" stroke-linejoin="round" stroke-miterlimit="10" stroke-dasharray=""/></g><path fill="#fa7e19" stroke="none" paint-order="stroke fill markers" d="" fill-opacity="0.4"/><g><path fill="none" stroke="#fa7e19" class="dcg-svg-curve" paint-order="fill stroke markers" d=" M 232.5 156.5 L 232.5 156.5 L 242.5 156.5" stroke-linecap="round" stroke-linejoin="round" stroke-miterlimit="10" stroke-dasharray=""/></g><path fill="#fa7e19" stroke="none" paint-order="stroke fill markers" d="" fill-opacity="0.4"/></g><g id="sketch-75fa7ed4"><title>Expression 5</title><path fill="#6042a6" stroke="none" paint-order="stroke fill markers" d="" fill-opacity="0.4"/><g><path fill="none" stroke="#6042a6" class="dcg-svg-curve" paint-order="fill stroke markers" d=" M 46.473639659960924 230.24353742741167 L 46.473639659960924 230.24353742741167 L 53.24796120625933 230.24353742741167" stroke-linecap="round" stroke-linejoin="round" stroke-miterlimit="10" stroke-width="2" stroke-dasharray=""/></g><g><path fill="none" stroke="#6042a6" class="dcg-svg-curve" paint-order="fill stroke markers" d=" M 107.33666440500009 230.24353742741167 L 107.33666440500009 230.24353742741167 L 110.97657427402551 230.24353742741167" stroke-linecap="round" stroke-linejoin="round" stroke-miterlimit="10" stroke-width="2" stroke-dasharray=""/></g><g><path fill="none" stroke="#6042a6" class="dcg-svg-curve" paint-order="fill stroke markers" d=" M 116.88244554704049 230.24353742741167 L 116.88244554704049 230.24353742741167 L 119.207010099067 230.24353742741167" stroke-linecap="round" stroke-linejoin="round" stroke-miterlimit="10" stroke-width="2" stroke-dasharray=""/></g><g><path fill="none" stroke="#6042a6" class="dcg-svg-curve" paint-order="fill stroke markers" d=" M 143.88017722514638 230.24353742741167 L 143.88017722514638 230.24353742741167 L 146.82106251602144 230.24353742741167" stroke-linecap="round" stroke-linejoin="round" stroke-miterlimit="10" stroke-width="2" stroke-dasharray=""/></g><g><path fill="none" stroke="#6042a6" class="dcg-svg-curve" paint-order="fill stroke markers" d=" M 153.60717755784157 230.24353742741167 L 153.60717755784157 230.24353742741167 L 159.04600048684782 230.24353742741167" stroke-linecap="round" stroke-linejoin="round" stroke-miterlimit="10" stroke-width="2" stroke-dasharray=""/></g><g><path fill="none" stroke="#6042a6" class="dcg-svg-curve" paint-order="fill stroke markers" d=" M 342.423211952772 230.24353742741167 L 342.423211952772 230.24353742741167 L 363.7394628895415 230.24353742741167" stroke-linecap="round" stroke-linejoin="round" stroke-miterlimit="10" stroke-width="2" stroke-dasharray=""/></g><path fill="#6042a6" stroke="none" paint-order="stroke fill markers" d="" fill-opacity="0.4"/><g><path fill="none" stroke="#6042a6" class="dcg-svg-curve" paint-order="fill stroke markers" d=" M 89.47454590495228 221.07175336174785 L 89.47454590495228 221.07175336174785 L 92.001010003035 221.07175336174785" stroke-linecap="round" stroke-linejoin="round" stroke-miterlimit="10" stroke-width="2" stroke-dasharray=""/></g><g><path fill="none" stroke="#6042a6" class="dcg-svg-curve" paint-order="fill stroke markers" d=" M 103.26927277920043 221.07175336174785 L 103.26927277920043 221.07175336174785 L 107.33666440500008 221.07175336174785" stroke-linecap="round" stroke-linejoin="round" stroke-miterlimit="10" stroke-width="2" stroke-dasharray=""/></g><g><path fill="none" stroke="#6042a6" class="dcg-svg-curve" paint-order="fill stroke markers" d=" M 119.20701009906702 221.07175336174785 L 119.20701009906702 221.07175336174785 L 122.94029854841796 221.07175336174785" stroke-linecap="round" stroke-linejoin="round" stroke-miterlimit="10" stroke-width="2" stroke-dasharray=""/></g><g><path fill="none" stroke="#6042a6" class="dcg-svg-curve" paint-order="fill stroke markers" d=" M 140.79955405801394 221.07175336174785 L 140.79955405801394 221.07175336174785 L 143.88017722514638 221.07175336174785" stroke-linecap="round" stroke-linejoin="round" stroke-miterlimit="10" stroke-width="2" stroke-dasharray=""/></g><g><path fill="none" stroke="#6042a6" class="dcg-svg-curve" paint-order="fill stroke markers" d=" M 159.04600048684782 221.07175336174785 L 159.04600048684782 221.07175336174785 L 195.01858747108622 221.07175336174785" stroke-linecap="round" stroke-linejoin="round" stroke-miterlimit="10" stroke-width="2" stroke-dasharray=""/></g><g><path fill="none" stroke="#6042a6" class="dcg-svg-curve" paint-order="fill stroke markers" d=" M 321.48743162788867 221.07175336174785 L 321.48743162788867 221.07175336174785 L 342.423211952772 221.07175336174785" stroke-linecap="round" stroke-linejoin="round" stroke-miterlimit="10" stroke-width="2" stroke-dasharray=""/></g><path fill="#6042a6" stroke="none" paint-order="stroke fill markers" d="" fill-opacity="0.4"/><g><path fill="none" stroke="#6042a6" class="dcg-svg-curve" paint-order="fill stroke markers" d=" M 102.90482288288169 211.89996929608407 L 102.90482288288169 211.89996929608407 L 103.26927277920042 211.89996929608407" stroke-linecap="round" stroke-linejoin="round" stroke-miterlimit="10" stroke-width="2" stroke-dasharray=""/></g><g><path fill="none" stroke="#6042a6" class="dcg-svg-curve" paint-order="fill stroke markers" d=" M 122.94029854841797 211.89996929608407 L 122.94029854841797 211.89996929608407 L 126.99808396970036 211.89996929608407" stroke-linecap="round" stroke-linejoin="round" stroke-miterlimit="10" stroke-width="2" stroke-dasharray=""/></g><g><path fill="none" stroke="#6042a6" class="dcg-svg-curve" paint-order="fill stroke markers" d=" M 136.91427328777456 211.89996929608407 L 136.91427328777456 211.89996929608407 L 140.7995540580139 211.89996929608407" stroke-linecap="round" stroke-linejoin="round" stroke-miterlimit="10" stroke-width="2" stroke-dasharray=""/></g><g><path fill="none" stroke="#6042a6" class="dcg-svg-curve" paint-order="fill stroke markers" d=" M 195.01858747108622 211.89996929608407 L 195.01858747108622 211.89996929608407 L 203.72505509237084 211.89996929608407" stroke-linecap="round" stroke-linejoin="round" stroke-miterlimit="10" stroke-width="2" stroke-dasharray=""/></g><g><path fill="none" stroke="#6042a6" class="dcg-svg-curve" paint-order="fill stroke markers" d=" M 297.0267921706904 211.89996929608407 L 297.0267921706904 211.89996929608407 L 304.7347715885277 211.89996929608407" stroke-linecap="round" stroke-linejoin="round" stroke-miterlimit="10" stroke-width="2" stroke-dasharray=""/></g><g><path fill="none" stroke="#6042a6" class="dcg-svg-curve" paint-order="fill stroke markers" d=" M 317.30065025693744 211.89996929608407 L 317.30065025693744 211.89996929608407 L 321.4874316278886 211.89996929608407" stroke-linecap="round" stroke-linejoin="round" stroke-miterlimit="10" stroke-width="2" stroke-dasharray=""/></g><path fill="#6042a6" stroke="none" paint-order="stroke fill markers" d="" fill-opacity="0.4"/><g><path fill="none" stroke="#6042a6" class="dcg-svg-curve" paint-order="fill stroke markers" d=" M 39.23837258300904 202.72818523042025 L 39.23837258300904 202.72818523042025 L 46.473639659960895 202.72818523042025" stroke-linecap="round" stroke-linejoin="round" stroke-miterlimit="10" stroke-width="2" stroke-dasharray=""/></g><g><path fill="none" stroke="#6042a6" class="dcg-svg-curve" paint-order="fill stroke markers" d=" M 53.24796120625936 202.72818523042025 L 53.24796120625936 202.72818523042025 L 65.54520867037527 202.72818523042025" stroke-linecap="round" stroke-linejoin="round" stroke-miterlimit="10" stroke-width="2" stroke-dasharray=""/></g><g><path fill="none" stroke="#6042a6" class="dcg-svg-curve" paint-order="fill stroke markers" d=" M 79.90662777971855 202.72818523042025 L 79.90662777971855 202.72818523042025 L 86.4441404938741 202.72818523042025" stroke-linecap="round" stroke-linejoin="round" stroke-miterlimit="10" stroke-width="2" stroke-dasharray=""/></g><g><path fill="none" stroke="#6042a6" class="dcg-svg-curve" paint-order="fill stroke markers" d=" M 110.97657427402552 202.72818523042025 L 110.97657427402552 202.72818523042025 L 116.88244554704048 202.72818523042025" stroke-linecap="round" stroke-linejoin="round" stroke-miterlimit="10" stroke-width="2" stroke-dasharray=""/></g><g><path fill="none" stroke="#6042a6" class="dcg-svg-curve" paint-order="fill stroke markers" d=" M 126.99808396970037 202.72818523042025 L 126.99808396970037 202.72818523042025 L 136.91427328777453 202.72818523042025" stroke-linecap="round" stroke-linejoin="round" stroke-miterlimit="10" stroke-width="2" stroke-dasharray=""/></g><g><path fill="none" stroke="#6042a6" class="dcg-svg-curve" paint-order="fill stroke markers" d=" M 203.72505509237084 202.72818523042025 L 203.72505509237084 202.72818523042025 L 209.9989184238497 202.72818523042025" stroke-linecap="round" stroke-linejoin="round" stroke-miterlimit="10" stroke-width="2" stroke-dasharray=""/></g><g><path fill="none" stroke="#6042a6" class="dcg-svg-curve" paint-order="fill stroke markers" d=" M 259.63227597334424 202.72818523042025 L 259.63227597334424 202.72818523042025 L 269.7135993393314 202.72818523042025" stroke-linecap="round" stroke-linejoin="round" stroke-miterlimit="10" stroke-width="2" stroke-dasharray=""/></g><g><path fill="none" stroke="#6042a6" class="dcg-svg-curve" paint-order="fill stroke markers" d=" M 293.1724743636713 202.72818523042025 L 293.1724743636713 202.72818523042025 L 297.0267921706904 202.72818523042025" stroke-linecap="round" stroke-linejoin="round" stroke-miterlimit="10" stroke-width="2" stroke-dasharray=""/></g><g><path fill="none" stroke="#6042a6" class="dcg-svg-curve" paint-order="fill stroke markers" d=" M 304.7347715885277 202.72818523042025 L 304.7347715885277 202.72818523042025 L 317.30065025693744 202.72818523042025" stroke-linecap="round" stroke-linejoin="round" stroke-miterlimit="10" stroke-width="2" stroke-dasharray=""/></g><path fill="#6042a6" stroke="none" paint-order="stroke fill markers" d="" fill-opacity="0.4"/><g><path fill="none" stroke="#6042a6" class="dcg-svg-curve" paint-order="fill stroke markers" d=" M 65.5452086703753 193.55640116475644 L 65.5452086703753 193.55640116475644 L 79.90662777971853 193.55640116475644" stroke-linecap="round" stroke-linejoin="round" stroke-miterlimit="10" stroke-width="2" stroke-dasharray=""/></g><g><path fill="none" stroke="#6042a6" class="dcg-svg-curve" paint-order="fill stroke markers" d=" M 86.44414049387412 193.55640116475644 L 86.44414049387412 193.55640116475644 L 89.47454590495227 193.55640116475644" stroke-linecap="round" stroke-linejoin="round" stroke-miterlimit="10" stroke-width="2" stroke-dasharray=""/></g><g><path fill="none" stroke="#6042a6" class="dcg-svg-curve" paint-order="fill stroke markers" d=" M 209.9989184238497 193.55640116475644 L 209.9989184238497 193.55640116475644 L 215.35715530781542 193.55640116475644" stroke-linecap="round" stroke-linejoin="round" stroke-miterlimit="10" stroke-width="2" stroke-dasharray=""/></g><g><path fill="none" stroke="#6042a6" class="dcg-svg-curve" paint-order="fill stroke markers" d=" M 255.31432084221868 193.55640116475644 L 255.31432084221868 193.55640116475644 L 259.6322759733442 193.55640116475644" stroke-linecap="round" stroke-linejoin="round" stroke-miterlimit="10" stroke-width="2" stroke-dasharray=""/></g><g><path fill="none" stroke="#6042a6" class="dcg-svg-curve" paint-order="fill stroke markers" d=" M 269.7135993393314 193.55640116475644 L 269.7135993393314 193.55640116475644 L 274.11039237344824 193.55640116475644" stroke-linecap="round" stroke-linejoin="round" stroke-miterlimit="10" stroke-width="2" stroke-dasharray=""/></g><g><path fill="none" stroke="#6042a6" class="dcg-svg-curve" paint-order="fill stroke markers" d=" M 290.07279271733967 193.55640116475644 L 290.07279271733967 193.55640116475644 L 293.1724743636713 193.55640116475644" stroke-linecap="round" stroke-linejoin="round" stroke-miterlimit="10" stroke-width="2" stroke-dasharray=""/></g><path fill="#6042a6" stroke="none" paint-order="stroke fill markers" d="" fill-opacity="0.4"/><g><path fill="none" stroke="#6042a6" class="dcg-svg-curve" paint-order="fill stroke markers" d=" M 92.00101000303502 184.38461709909265 L 92.00101000303502 184.38461709909265 L 96.76284678157498 184.38461709909265" stroke-linecap="round" stroke-linejoin="round" stroke-miterlimit="10" stroke-width="2" stroke-dasharray=""/></g><g><path fill="none" stroke="#6042a6" class="dcg-svg-curve" paint-order="fill stroke markers" d=" M 98.95550871466328 184.38461709909265 L 98.95550871466328 184.38461709909265 L 102.90482288288167 184.38461709909265" stroke-linecap="round" stroke-linejoin="round" stroke-miterlimit="10" stroke-width="2" stroke-dasharray=""/></g><g><path fill="none" stroke="#6042a6" class="dcg-svg-curve" paint-order="fill stroke markers" d=" M 215.35715530781542 184.38461709909265 L 215.35715530781542 184.38461709909265 L 220.37308891523998 184.38461709909265" stroke-linecap="round" stroke-linejoin="round" stroke-miterlimit="10" stroke-width="2" stroke-dasharray=""/></g><g><path fill="none" stroke="#6042a6" class="dcg-svg-curve" paint-order="fill stroke markers" d=" M 251.71580496253335 184.38461709909265 L 251.71580496253335 184.38461709909265 L 255.31432084221865 184.38461709909265" stroke-linecap="round" stroke-linejoin="round" stroke-miterlimit="10" stroke-width="2" stroke-dasharray=""/></g><g><path fill="none" stroke="#6042a6" class="dcg-svg-curve" paint-order="fill stroke markers" d=" M 274.11039237344824 184.38461709909265 L 274.11039237344824 184.38461709909265 L 278.5481607511251 184.38461709909265" stroke-linecap="round" stroke-linejoin="round" stroke-miterlimit="10" stroke-width="2" stroke-dasharray=""/></g><g><path fill="none" stroke="#6042a6" class="dcg-svg-curve" paint-order="fill stroke markers" d=" M 286.2559307563808 184.38461709909265 L 286.2559307563808 184.38461709909265 L 290.07279271733967 184.38461709909265" stroke-linecap="round" stroke-linejoin="round" stroke-miterlimit="10" stroke-width="2" stroke-dasharray=""/></g><path fill="#6042a6" stroke="none" paint-order="stroke fill markers" d="" fill-opacity="0.4"/><g><path fill="none" stroke="#6042a6" class="dcg-svg-curve" paint-order="fill stroke markers" d=" M 96.76284678157499 175.21283303342886 L 96.76284678157499 175.21283303342886 L 98.95550871466327 175.21283303342886" stroke-linecap="round" stroke-linejoin="round" stroke-miterlimit="10" stroke-width="2" stroke-dasharray=""/></g><g><path fill="none" stroke="#6042a6" class="dcg-svg-curve" paint-order="fill stroke markers" d=" M 220.37308891523998 175.21283303342886 L 220.37308891523998 175.21283303342886 L 225.561625647464 175.21283303342886" stroke-linecap="round" stroke-linejoin="round" stroke-miterlimit="10" stroke-width="2" stroke-dasharray=""/></g><g><path fill="none" stroke="#6042a6" class="dcg-svg-curve" paint-order="fill stroke markers" d=" M 247.88503251802402 175.21283303342886 L 247.88503251802402 175.21283303342886 L 251.71580496253335 175.21283303342886" stroke-linecap="round" stroke-linejoin="round" stroke-miterlimit="10" stroke-width="2" stroke-dasharray=""/></g><g><path fill="none" stroke="#6042a6" class="dcg-svg-curve" paint-order="fill stroke markers" d=" M 278.5481607511252 175.21283303342886 L 278.5481607511252 175.21283303342886 L 286.25593075638074 175.21283303342886" stroke-linecap="round" stroke-linejoin="round" stroke-miterlimit="10" stroke-width="2" stroke-dasharray=""/></g><path fill="#6042a6" stroke="none" paint-order="stroke fill markers" d="" fill-opacity="0.4"/><g><path fill="none" stroke="#6042a6" class="dcg-svg-curve" paint-order="fill stroke markers" d=" M 225.561625647464 166.04104896776505 L 225.561625647464 166.04104896776505 L 232.38013545174192 166.04104896776505" stroke-linecap="round" stroke-linejoin="round" stroke-miterlimit="10" stroke-width="2" stroke-dasharray=""/></g><g><path fill="none" stroke="#6042a6" class="dcg-svg-curve" paint-order="fill stroke markers" d=" M 242.30826103268285 166.04104896776505 L 242.30826103268285 166.04104896776505 L 247.885032518024 166.04104896776505" stroke-linecap="round" stroke-linejoin="round" stroke-miterlimit="10" stroke-width="2" stroke-dasharray=""/></g><path fill="#6042a6" stroke="none" paint-order="stroke fill markers" d="" fill-opacity="0.4"/><g><path fill="none" stroke="#6042a6" class="dcg-svg-curve" paint-order="fill stroke markers" d=" M 232.38013545174192 156.86926490210124 L 232.38013545174192 156.86926490210124 L 242.30826103268285 156.86926490210124" stroke-linecap="round" stroke-linejoin="round" stroke-miterlimit="10" stroke-width="2" stroke-dasharray=""/></g><path fill="#6042a6" stroke="none" paint-order="stroke fill markers" d="" fill-opacity="0.4"/></g></g><g id="labels-75fa7ed4"/></g></svg>